<?xml version="1.0" encoding="UTF-8" standalone="no"?>
<!DOCTYPE svg PUBLIC "-//W3C//DTD SVG 1.1//EN" "http://www.w3.org/Graphics/SVG/1.1/DTD/svg11.dtd">
<svg version="1.1" xmlns="http://www.w3.org/2000/svg" xmlns:xlink="http://www.w3.org/1999/xlink" preserveAspectRatio="xMidYMid meet" viewBox="39 -1 564 644" width="560" height="640"><defs><path d="M40 0L600 0L600 640L40 640L40 0Z" id="bbRSgONgj"></path><path d="M40 560L600 0L40 0L40 560Z" id="cvgtYRkhr"></path><path d="M40 640L600 80L40 80L40 640Z" id="b2QAjYvX3a"></path><path d="M600 80L40 640L600 640L600 80Z" id="cl7OG725D"></path><path d="M600 0L40 560L600 560L600 0Z" id="aCfu3ZSWm"></path><path d="M40 540L60 540L60 560L40 560L40 540Z" id="bqM5l6yRk"></path><path d="M50 10L590 10L590 630L50 630L50 10Z" id="a90NQxHIm"></path><path d="M95 55L130 20L130 55L545 55L580 20L580 90L60 90L70 80L70 55L70 55L95 55Z" id="b42JZFiMPd"></path><path d="M545 55L510 90L510 55L95 55L60 90L60 20L580 20L570 30L570 55L570 55L545 55Z" id="b227SazDw"></path><path d="M70 30L570 30L570 80L70 80L70 30Z" id="d1VGEj6CQ6"></path><path d="M510 80L520 80L520 90L510 90L510 80Z" id="d1ei1t2NKG"></path><path d="M60 620L580 100L60 100L60 620Z" id="dfEJlvUi3"></path><path d="M580 100L60 620L580 620L580 100Z" id="dMkVnxe5H"></path><path d="M70 110L570 110L570 610L70 610L70 110Z" id="e1xJJKA63B"></path></defs><g><g><use xlink:href="#bbRSgONgj" opacity="1" fill="#3e87ab" fill-opacity="1"></use></g><g><use xlink:href="#cvgtYRkhr" opacity="1" fill="#e5e7e9" fill-opacity="1"></use></g><g><use xlink:href="#b2QAjYvX3a" opacity="1" fill="#e5e7e9" fill-opacity="1"></use></g><g><use xlink:href="#cl7OG725D" opacity="1" fill="#a6acaf" fill-opacity="1"></use></g><g><use xlink:href="#aCfu3ZSWm" opacity="1" fill="#a6acaf" fill-opacity="1"></use></g><g><use xlink:href="#bqM5l6yRk" opacity="1" fill="#e5e7e9" fill-opacity="1"></use></g><g><use xlink:href="#a90NQxHIm" opacity="1" fill="#cacfd2" fill-opacity="1"></use></g><g><use xlink:href="#b42JZFiMPd" opacity="1" fill="#e5e7e9" fill-opacity="1"></use></g><g><use xlink:href="#b227SazDw" opacity="1" fill="#a6acaf" fill-opacity="1"></use></g><g><use xlink:href="#d1VGEj6CQ6" opacity="1" fill="#cacfd2" fill-opacity="1"></use></g><g><use xlink:href="#d1ei1t2NKG" opacity="1" fill="#e5e7e9" fill-opacity="1"></use></g><g><use xlink:href="#dfEJlvUi3" opacity="1" fill="#a6acaf" fill-opacity="1"></use></g><g><use xlink:href="#dMkVnxe5H" opacity="1" fill="#e5e7e9" fill-opacity="1"></use></g><g><use xlink:href="#e1xJJKA63B" opacity="1" fill="#cacfd2" fill-opacity="1"></use></g></g></svg>