<?xml version="1.0" encoding="UTF-8" standalone="no"?>
<!DOCTYPE svg PUBLIC "-//W3C//DTD SVG 1.1//EN" "http://www.w3.org/Graphics/SVG/1.1/DTD/svg11.dtd">
<svg version="1.1" xmlns="http://www.w3.org/2000/svg" xmlns:xlink="http://www.w3.org/1999/xlink" preserveAspectRatio="xMidYMid meet" viewBox="39 -1 564 644" width="560" height="640"><defs><path d="M40 0L600 0L600 640L40 640L40 0Z" id="bIKnUnYm"></path><path d="M40 560L600 0L40 0L40 560Z" id="gkUD4F1qa"></path><path d="M40 640L600 80L40 80L40 640Z" id="a55FQ1JOh"></path><path d="M600 80L40 640L600 640L600 80Z" id="n6ZwuDGSHe"></path><path d="M600 0L40 560L600 560L600 0Z" id="dCmhRxY5M"></path><path d="M40 540L60 540L60 560L40 560L40 540Z" id="c8uv43rTK"></path><path d="M50 10L590 10L590 630L50 630L50 10Z" id="b2yHqgA3Gz"></path><path d="M60 620L580 100L60 100L60 620Z" id="a14PnHXcjE"></path><path d="M580 100L60 620L580 620L580 100Z" id="jNzqnn4Zs"></path><path d="M70 110L570 110L570 610L70 610L70 110Z" id="aMW4C0U01"></path></defs><g><g><use xlink:href="#bIKnUnYm" opacity="1" fill="#3e87ab" fill-opacity="1"></use></g><g><use xlink:href="#gkUD4F1qa" opacity="1" fill="#e5e7e9" fill-opacity="1"></use></g><g><use xlink:href="#a55FQ1JOh" opacity="1" fill="#e5e7e9" fill-opacity="1"></use></g><g><use xlink:href="#n6ZwuDGSHe" opacity="1" fill="#a6acaf" fill-opacity="1"></use></g><g><use xlink:href="#dCmhRxY5M" opacity="1" fill="#a6acaf" fill-opacity="1"></use></g><g><use xlink:href="#c8uv43rTK" opacity="1" fill="#e5e7e9" fill-opacity="1"></use></g><g><use xlink:href="#b2yHqgA3Gz" opacity="1" fill="#cacfd2" fill-opacity="1"></use></g><g><use xlink:href="#a14PnHXcjE" opacity="1" fill="#a6acaf" fill-opacity="1"></use></g><g><use xlink:href="#jNzqnn4Zs" opacity="1" fill="#e5e7e9" fill-opacity="1"></use></g><g><use xlink:href="#aMW4C0U01" opacity="1" fill="#cacfd2" fill-opacity="1"></use></g></g></svg>