<?xml version="1.0" encoding="UTF-8" standalone="no"?>
<!DOCTYPE svg PUBLIC "-//W3C//DTD SVG 1.1//EN" "http://www.w3.org/Graphics/SVG/1.1/DTD/svg11.dtd">
<svg version="1.1" xmlns="http://www.w3.org/2000/svg" xmlns:xlink="http://www.w3.org/1999/xlink" preserveAspectRatio="xMidYMid meet" viewBox="39 -1 564 644" width="560" height="640"><defs><path d="M40 0L600 0L600 640L40 640L40 0Z" id="bkJmgyGIR"></path><path d="M40 560L600 0L40 0L40 560Z" id="a37YXcSpvV"></path><path d="M40 640L600 80L40 80L40 640Z" id="a1io2qBgxR"></path><path d="M600 80L40 640L600 640L600 80Z" id="a1h6liaxIs"></path><path d="M600 0L40 560L600 560L600 0Z" id="bgeoKVYte"></path><path d="M40 540L60 540L60 560L40 560L40 540Z" id="h1Bt4T4rn9"></path><path d="M50 10L590 10L590 630L50 630L50 10Z" id="dvSrNHO9"></path></defs><g><g><use xlink:href="#bkJmgyGIR" opacity="1" fill="#3e87ab" fill-opacity="1"></use></g><g><use xlink:href="#a37YXcSpvV" opacity="1" fill="#e5e7e9" fill-opacity="1"></use></g><g><use xlink:href="#a1io2qBgxR" opacity="1" fill="#e5e7e9" fill-opacity="1"></use></g><g><use xlink:href="#a1h6liaxIs" opacity="1" fill="#a6acaf" fill-opacity="1"></use></g><g><use xlink:href="#bgeoKVYte" opacity="1" fill="#a6acaf" fill-opacity="1"></use></g><g><use xlink:href="#h1Bt4T4rn9" opacity="1" fill="#e5e7e9" fill-opacity="1"></use></g><g><use xlink:href="#dvSrNHO9" opacity="1" fill="#cacfd2" fill-opacity="1"></use></g></g></svg>